<?xml version="1.0" encoding="utf-8"?>
<!-- Generator: Adobe Illustrator 16.0.0, SVG Export Plug-In . SVG Version: 6.00 Build 0)  -->
<!DOCTYPE svg PUBLIC "-//W3C//DTD SVG 1.1//EN" "http://www.w3.org/Graphics/SVG/1.1/DTD/svg11.dtd">
<svg version="1.1" id="Layer_1" xmlns="http://www.w3.org/2000/svg" xmlns:xlink="http://www.w3.org/1999/xlink" x="0px" y="0px"
	 width="19.354px" height="19.757px" viewBox="0 0 19.354 19.757" enable-background="new 0 0 19.354 19.757" xml:space="preserve">
<g>
	<path fill="#C9C9C9" d="M16.558,15.397c0,0.28-0.109,0.522-0.328,0.728c-0.219,0.205-0.479,0.307-0.778,0.307
		c-0.311,0-0.57-0.102-0.777-0.307l-2.964-2.764c-1.032,0.668-2.181,1.002-3.448,1.002c-0.824,0-1.612-0.149-2.364-0.449
		c-0.752-0.299-1.4-0.703-1.945-1.212c-0.544-0.509-0.977-1.116-1.296-1.819s-0.479-1.439-0.479-2.21s0.16-1.507,0.479-2.21
		s0.752-1.31,1.296-1.818c0.544-0.509,1.193-0.914,1.945-1.212c0.752-0.299,1.54-0.449,2.364-0.449c0.824,0,1.612,0.149,2.363,0.449
		c0.752,0.299,1.4,0.703,1.945,1.212c0.544,0.509,0.977,1.115,1.296,1.818s0.479,1.44,0.479,2.21c0,1.185-0.357,2.26-1.072,3.225
		l2.965,2.771C16.451,14.87,16.558,15.112,16.558,15.397z M10.997,11.231c0.757-0.708,1.136-1.561,1.136-2.558
		c0-0.997-0.379-1.85-1.136-2.558c-0.758-0.708-1.67-1.063-2.735-1.063c-1.066,0-1.978,0.354-2.735,1.063
		C4.768,6.824,4.389,7.676,4.389,8.673c0,0.997,0.379,1.849,1.137,2.558c0.757,0.708,1.669,1.063,2.735,1.063
		C9.327,12.294,10.239,11.939,10.997,11.231z"/>
</g>
</svg>
